<?xml version="1.0" standalone="no"?>
<!DOCTYPE svg PUBLIC "-//W3C//DTD SVG 20010904//EN"
 "http://www.w3.org/TR/2001/REC-SVG-20010904/DTD/svg10.dtd">
<svg version="1.0" xmlns="http://www.w3.org/2000/svg"
 width="1000.000000pt" height="1000.000000pt" viewBox="0 0 1000.000000 1000.000000"
 preserveAspectRatio="xMidYMid meet">
<metadata>
Created by potrace 1.14, written by Peter Selinger 2001-2017
</metadata>
<g transform="translate(0.000000,1000.000000) scale(0.100000,-0.100000)"
fill="#000000" stroke="none">
<path d="M8140 9845 c-80 -30 -206 -77 -280 -104 -485 -178 -1216 -446 -1275
-467 -38 -14 -86 -32 -105 -39 -19 -8 -134 -50 -255 -94 -533 -194 -798 -292
-826 -306 -16 -9 -31 -25 -34 -38 -3 -12 -4 -186 -3 -387 l3 -365 22 -3 c12
-2 123 33 245 78 123 45 358 132 523 192 466 171 721 264 895 327 63 23 126
46 139 52 13 5 152 57 310 114 602 219 819 301 842 316 l24 16 3 362 c2 243
-1 368 -8 381 -17 31 -60 24 -220 -35z"/>
<path d="M4665 8691 c-11 -5 -23 -7 -27 -5 -12 7 -223 -27 -343 -57 -225 -54
-496 -152 -650 -235 -22 -11 -76 -40 -120 -64 -312 -167 -670 -469 -906 -765
-138 -173 -295 -417 -283 -437 4 -6 3 -8 -2 -5 -13 8 -126 -221 -118 -236 4
-7 3 -9 -1 -4 -20 18 -165 -405 -191 -558 -2 -11 -11 -53 -19 -94 -33 -161
-47 -326 -48 -546 0 -274 21 -458 79 -705 26 -109 120 -407 134 -425 5 -6 18
-37 30 -69 44 -116 165 -336 282 -510 110 -162 203 -272 396 -465 112 -112
146 -141 153 -130 8 11 9 11 7 -2 -3 -19 58 -71 217 -184 353 -251 779 -427
1215 -504 493 -86 986 -51 1462 105 264 86 572 236 756 368 101 73 262 195
298 227 52 46 219 213 274 274 86 94 251 314 295 390 16 28 39 64 51 80 30 42
144 265 184 360 18 44 39 94 45 110 49 117 154 500 141 513 -3 2 -1 12 4 22
25 47 61 548 41 579 -7 11 -33 7 -147 -24 -77 -20 -161 -43 -189 -51 -241 -63
-343 -92 -362 -103 -33 -17 -49 -57 -57 -136 -15 -168 -79 -417 -152 -595 -27
-64 -124 -260 -144 -290 -9 -14 -42 -64 -73 -111 -113 -174 -301 -380 -465
-511 -76 -60 -247 -178 -259 -178 -4 0 -14 -6 -22 -14 -16 -15 -184 -101 -256
-131 -378 -161 -832 -220 -1235 -160 -383 57 -722 200 -1055 442 -87 63 -371
341 -401 392 -11 18 -24 29 -32 26 -7 -3 -10 0 -7 6 4 5 -11 33 -32 62 -123
164 -261 438 -318 627 -9 30 -21 66 -26 79 -16 40 -57 251 -74 376 -44 342 12
762 147 1095 83 207 197 402 338 584 75 96 277 294 390 382 319 250 724 414
1142 465 54 6 105 17 115 24 17 12 18 41 21 350 3 400 10 375 -107 374 -42 0
-85 -4 -96 -8z"/>
<path d="M8270 8493 c-8 -3 -62 -22 -120 -43 -376 -138 -1216 -446 -1270 -466
-36 -13 -94 -34 -130 -47 -36 -14 -220 -81 -410 -150 -190 -69 -437 -160 -550
-202 -113 -41 -249 -92 -302 -111 -53 -20 -104 -44 -112 -53 -14 -16 -16 -63
-14 -391 3 -324 5 -374 18 -383 16 -9 170 44 795 275 105 38 255 94 335 123
80 29 264 97 410 150 146 53 348 128 450 165 102 38 345 127 540 198 452 166
435 158 449 188 15 33 16 707 1 735 -11 19 -54 25 -90 12z"/>
<path d="M8265 7166 c-42 -14 -357 -129 -660 -241 -99 -37 -191 -71 -205 -75
-14 -5 -61 -22 -105 -38 -44 -17 -197 -73 -340 -125 -143 -52 -388 -142 -545
-200 -157 -58 -427 -157 -601 -220 -410 -150 -422 -155 -436 -174 -10 -13 -13
-107 -13 -390 0 -352 1 -373 18 -382 14 -8 42 -1 113 25 52 19 148 55 214 79
66 24 275 101 465 170 190 70 392 144 450 165 58 21 193 71 300 110 167 62
413 152 805 295 607 221 617 225 632 255 10 19 13 114 13 377 0 416 3 404
-105 369z"/>
<path d="M2672 1889 c-186 -17 -368 -82 -493 -176 -161 -121 -256 -260 -310
-453 -20 -73 -23 -107 -23 -240 1 -188 18 -264 95 -418 81 -162 198 -277 366
-361 148 -74 323 -107 512 -98 195 10 330 43 499 122 l92 44 0 195 c0 108 -2
196 -4 196 -2 0 -35 -19 -72 -42 -181 -109 -347 -159 -534 -159 -172 0 -278
39 -381 141 -61 60 -110 151 -128 238 -14 66 -14 202 -1 273 25 134 130 272
251 329 165 78 381 79 607 4 48 -16 202 -90 217 -105 5 -5 15 -9 22 -9 10 0
13 41 13 194 l0 194 -72 30 c-213 88 -436 122 -656 101z"/>
<path d="M3630 1020 l0 -850 210 0 210 0 2 397 3 396 325 -396 325 -397 216 0
216 0 17 45 c10 25 21 45 24 44 4 0 23 -20 42 -44 l35 -44 166 0 167 -1 68
165 68 165 367 0 366 0 58 -157 c32 -87 61 -161 65 -166 3 -4 106 -6 227 -5
l220 3 -74 190 c-41 105 -139 357 -218 560 -265 681 -351 900 -364 923 l-12
22 -241 -2 -241 -3 -58 -130 c-97 -219 -445 -1018 -541 -1240 -50 -116 -94
-213 -98 -218 -3 -4 -81 84 -172 195 -92 112 -217 264 -278 338 -156 188 -220
268 -220 274 0 3 60 83 133 177 72 95 173 225 222 290 50 65 123 160 163 212
39 52 72 97 72 101 0 3 -105 6 -234 6 l-234 0 -78 -102 c-106 -141 -214 -282
-368 -483 l-131 -170 -3 378 -2 377 -210 0 -210 0 0 -850z m2531 283 c23 -65
75 -206 115 -313 l72 -195 -245 -3 c-136 -1 -248 -1 -250 2 -4 3 40 114 121
306 13 30 47 115 77 188 29 72 56 132 60 132 4 0 26 -53 50 -117z"/>
<path d="M6760 1710 l0 -160 280 0 280 0 0 -690 0 -690 225 0 225 0 0 690 0
690 280 0 280 0 0 160 0 160 -785 0 -785 0 0 -160z"/>
</g>
</svg>
