<?xml version="1.0" encoding="utf-8"?>
<!-- Generator: Adobe Illustrator 26.3.1, SVG Export Plug-In . SVG Version: 6.00 Build 0)  -->
<svg version="1.1" id="Слой_1" xmlns="http://www.w3.org/2000/svg" xmlns:xlink="http://www.w3.org/1999/xlink" x="0px" y="0px"
	 viewBox="0 0 32 32" style="enable-background:new 0 0 32 32;" xml:space="preserve">
<path d="M17.6,30.8c-0.3,0-0.9,0-1.2-0.3l-13-13.6c-0.6-0.6-0.6-1.5,0-2L16.5,1.7c0.6-0.6,1.5-0.6,2,0s0.6,1.5,0,2L6.3,16l12.2,12.2
	c0.6,0.6,0.6,1.5,0,2C18.2,30.5,17.9,30.8,17.6,30.8L17.6,30.8L17.6,30.8z M27.8,30.8c-0.3,0-0.9,0-1.2-0.3L13.5,16.9
	c-0.6-0.6-0.6-1.5,0-2L26.6,1.7c0.6-0.6,1.5-0.6,2,0s0.6,1.5,0,2L16.4,16l12.2,12.2c0.6,0.6,0.6,1.5,0,2
	C28.3,30.5,28,30.8,27.8,30.8L27.8,30.8L27.8,30.8z"/>
</svg>
