<?xml version="1.0" encoding="utf-8"?>
<!-- Generator: Adobe Illustrator 26.3.1, SVG Export Plug-In . SVG Version: 6.00 Build 0)  -->
<svg version="1.1" id="Слой_1" xmlns="http://www.w3.org/2000/svg" xmlns:xlink="http://www.w3.org/1999/xlink" x="0px" y="0px"
	 viewBox="0 0 57 57" style="enable-background:new 0 0 57 57;" xml:space="preserve">
<style type="text/css">
	.st0{fill:none;stroke:#000000;stroke-width:2;stroke-miterlimit:10;}
</style>
<path class="st0" d="M56.1,41c0,1.5-1.2,2.7-2.7,2.7H19.6L1.8,56.1H0.9V3.6C0.9,2,2,0.9,3.6,0.9h49.9c1.5,0,2.7,1.2,2.7,2.7L56.1,41
	L56.1,41z"/>
<path class="st0" d="M52.5,4.5h-48V33h48.1C52.5,33,52.5,4.5,52.5,4.5z"/>
<path class="st0" d="M23.2,24.9h-0.9V12.5h0.9l11.6,6.2C34.7,18.7,23.2,24.9,23.2,24.9z M3.6,37.4h10.7 M19.6,37.4h23.2 M44.5,37.4
	h1.8 M48.1,37.4h1.8 M51.7,37.4h1.8 M16.9,35.6v3.6"/>
</svg>
