<?xml version="1.0" encoding="utf-8"?>
<!-- Generator: Adobe Illustrator 26.3.1, SVG Export Plug-In . SVG Version: 6.00 Build 0)  -->
<svg version="1.1" id="Слой_1" xmlns="http://www.w3.org/2000/svg" xmlns:xlink="http://www.w3.org/1999/xlink" x="0px" y="0px"
	 viewBox="0 0 57 46" style="enable-background:new 0 0 57 46;" xml:space="preserve">
<style type="text/css">
	.st0{fill:none;stroke:#000000;stroke-width:2;stroke-miterlimit:10;}
	.st1{fill:none;stroke:#000000;stroke-width:2;stroke-linejoin:round;stroke-miterlimit:10;}
</style>
<path class="st0" d="M52.5,0.9H1.8c-0.5,0-0.9,0.4-0.9,0.9v35.4c0,0.5,0.4,0.9,0.9,0.9h50.8c2,0,3.6-1.6,3.6-3.5V4.4
	C56.1,2.5,54.5,0.9,52.5,0.9L52.5,0.9z M13.4,0.9V38"/>
<path class="st1" d="M54.3,45.1H4.5l-3.6-1.8l3.6-1.8h49.9v3.6H54.3z M11.6,41.6v3.5 M15.1,41.6v3.5 M18.7,41.6v3.5 M57,43.3h-2.7"
	/>
<path class="st0" d="M34.7,18.6v1.8 M34.7,22.1v1.8 M34.7,25.7v1.8 M34.7,15v1.8 M34.7,11.5v1.8 M32.1,19.5h-1.8 M22.3,8.8h-1.8
	 M49,8.8h-1.8 M22.3,30.1h-1.8 M49,30.1h-1.8 M28.5,19.5h-1.8 M42.8,19.5H41 M39.2,19.5h-1.8"/>
</svg>
