<?xml version="1.0" encoding="utf-8"?>
<!-- Generator: Adobe Illustrator 26.3.1, SVG Export Plug-In . SVG Version: 6.00 Build 0)  -->
<svg version="1.1" id="Capa_1" xmlns="http://www.w3.org/2000/svg" xmlns:xlink="http://www.w3.org/1999/xlink" x="0px" y="0px"
	 viewBox="0 0 27.6 27.6" style="enable-background:new 0 0 27.6 27.6;" xml:space="preserve">
<g>
	<path d="M13.8,0C7.1,0,1.7,5.4,1.7,12.1c0,3.4,1.5,6.6,3.8,8.8l-0.4,6.7l5.7-3.8c1,0.2,1.9,0.4,3,0.4c6.7,0,12.1-5.4,12.1-12.1
		S20.4,0,13.8,0z M12.6,11.3c0,1.2-0.3,2.2-0.8,2.9s-1.4,1.4-2.7,1.9l-0.9-1.8c0.8-0.3,1.3-0.6,1.6-1s0.5-0.8,0.5-1.3H8.2V8h4.4
		V11.3z M19.3,11.3c0,1.2-0.3,2.2-0.8,2.9c-0.5,0.7-1.4,1.4-2.7,1.9l-0.9-1.8c0.8-0.4,1.3-0.7,1.6-1.1c0.3-0.4,0.5-0.8,0.5-1.3h-2.1
		V8h4.4V11.3L19.3,11.3z"/>
</g>
</svg>
