<?xml version="1.0" encoding="utf-8"?>
<!-- Generator: Adobe Illustrator 26.3.1, SVG Export Plug-In . SVG Version: 6.00 Build 0)  -->
<svg version="1.1" id="Слой_1" xmlns="http://www.w3.org/2000/svg" xmlns:xlink="http://www.w3.org/1999/xlink" x="0px" y="0px"
	 viewBox="0 0 512 512" style="enable-background:new 0 0 512 512;" xml:space="preserve">
<path d="M452,512H60c-33.1,0-60-26.9-60-60V60C0,26.9,26.9,0,60,0h392c33.1,0,60,26.9,60,60v392C512,485.1,485.1,512,452,512z
	 M60,40c-11,0-20,9-20,20v392c0,11,9,20,20,20h392c11,0,20-9,20-20V60c0-11-9-20-20-20H60z M430.9,151.3l-29.8-26.7l-185,206.6
	l-107.4-102l-27.6,29l137.2,130.4L430.9,151.3z"/>
</svg>
