<?xml version="1.0" encoding="utf-8"?>
<!-- Generator: Adobe Illustrator 26.3.1, SVG Export Plug-In . SVG Version: 6.00 Build 0)  -->
<svg version="1.1" id="Слой_1" xmlns="http://www.w3.org/2000/svg" xmlns:xlink="http://www.w3.org/1999/xlink" x="0px" y="0px"
	 viewBox="0 0 32 32" style="enable-background:new 0 0 32 32;" xml:space="preserve">
<path d="M16.1,32.1c8.9,0,16.1-7.2,16.1-16.1S25,0,16.1,0s-16,7.2-16,16.1S7.3,32.1,16.1,32.1z M16.1,1.2C24.3,1.2,31,7.8,31,16.1
	S24.3,31,16.1,31S1.2,24.3,1.2,16.1S7.9,1.2,16.1,1.2z M10.8,22.2l5.4-5.4l5.4,5.4c0.1,0.1,0.3,0.2,0.4,0.2s0.3-0.1,0.4-0.2
	c0.2-0.2,0.2-0.6,0-0.8L17,16.1l5.4-5.4c0.2-0.2,0.2-0.6,0-0.8s-0.6-0.2-0.8,0l-5.4,5.4l-5.4-5.4c-0.2-0.2-0.6-0.2-0.8,0
	s-0.2,0.6,0,0.8l5.4,5.4L10,21.4c-0.2,0.2-0.2,0.6,0,0.8c0.1,0.1,0.3,0.2,0.4,0.2C10.5,22.4,10.6,22.4,10.8,22.2L10.8,22.2z"/>
</svg>
