<?xml version="1.0" encoding="utf-8"?>
<!-- Generator: Adobe Illustrator 26.3.1, SVG Export Plug-In . SVG Version: 6.00 Build 0)  -->
<svg version="1.1" id="Слой_1" xmlns="http://www.w3.org/2000/svg" xmlns:xlink="http://www.w3.org/1999/xlink" x="0px" y="0px"
	 viewBox="0 0 32 32" style="enable-background:new 0 0 32 32;" xml:space="preserve">
<path d="M2.7,30.8c-0.2,0-0.7-0.2-1-0.5c-0.5-0.5-0.5-1.5,0-2L28.6,1.7c0.5-0.5,1.5-0.5,2,0s0.5,1.5,0,2L3.4,30.3
	C3.2,30.5,3,30.8,2.7,30.8z"/>
<path d="M29.3,30.8c-0.2,0-0.7-0.2-1-0.5L1.7,3.4C1.2,3,1.2,2,1.7,1.5s1.5-0.5,2,0l26.8,26.8c0.5,0.5,0.5,1.5,0,2
	C30,30.5,29.8,30.8,29.3,30.8L29.3,30.8z"/>
</svg>
