<?xml version="1.0" encoding="utf-8"?>
<!-- Generator: Adobe Illustrator 26.3.1, SVG Export Plug-In . SVG Version: 6.00 Build 0)  -->
<svg version="1.1" id="Слой_1" xmlns="http://www.w3.org/2000/svg" xmlns:xlink="http://www.w3.org/1999/xlink" x="0px" y="0px"
	 viewBox="0 0 32 32" style="enable-background:new 0 0 32 32;" xml:space="preserve">
<path d="M18.5,3.6c-0.1,0-0.3,0.1-0.6,0.1c-2.4,0.4-4.7,2.1-5.7,4.4c-0.1,0.3-0.3,0.6-0.3,0.6c0,0.2-0.1,0.1-0.4-0.1
	C9.2,7,6.1,7.8,4.9,10.3C4.5,11,4.4,12,4.5,12.8c0.1,0.9,0.1,0.8-0.3,0.9c-1.4,0.5-2.6,1.5-3.3,2.9c-0.4,0.7-0.5,1.4-0.6,2.2
	c-0.1,1.2,0.2,2.3,0.9,3.3C2,23.3,2.9,24,4.3,24.5l0.6,0.2h6.3L11,24.5c-0.1-0.1-0.7-0.8-1.5-1.6l-1.3-1.4h2.3h2.3v-7.7h6.3v7.7h2.3
	h2.3l-1.5,1.6l-1.4,1.6h2.4c2,0,2.5,0,3-0.1c2.1-0.4,3.8-1.7,4.7-3.6c1.7-3.3,0.2-7.4-3.2-9l-0.5-0.3v-0.5c0-0.9-0.3-2.1-0.7-3.1
	c-0.3-0.7-1-1.6-1.6-2.2c-1.5-1.5-3.5-2.3-5.6-2.3C18.9,3.6,18.6,3.6,18.5,3.6L18.5,3.6z M13.8,18.6v3.9h-1.7h-1.7l2.7,3
	c1.5,1.6,2.8,3,2.8,3s1.3-1.3,2.8-3l2.8-3h-1.7h-1.7v-7.7h-4.4L13.8,18.6L13.8,18.6z"/>
</svg>
