<?xml version="1.0" encoding="utf-8"?>
<!-- Generator: Adobe Illustrator 26.3.1, SVG Export Plug-In . SVG Version: 6.00 Build 0)  -->
<svg version="1.1" id="Слой_1" xmlns="http://www.w3.org/2000/svg" xmlns:xlink="http://www.w3.org/1999/xlink" x="0px" y="0px"
	 viewBox="0 0 32 32" style="enable-background:new 0 0 32 32;" xml:space="preserve">
<path d="M13.1,26.3c0.1,0.1,0.2,0.4,0.2,0.8s-0.1,0.7-0.2,0.8c-0.1,0.1-0.4,0.2-0.9,0.2H11v-1.9h1.3C12.7,26.1,13,26.2,13.1,26.3z
	 M17.5,26.1H16v3.7h1.5c0.5,0,0.8-0.1,1-0.3c0.1-0.2,0.2-0.7,0.2-1.5s-0.1-1.3-0.2-1.5C18.3,26.2,17.9,26.1,17.5,26.1z M32,3.5v25.1
	c0,1.9-1.5,3.4-3.4,3.4H3.4C1.5,32,0,30.5,0,28.6V3.5c0-1.9,1.5-3.4,3.4-3.4h25.1C30.5,0.1,32,1.6,32,3.5z M14.3,27.1
	c0-0.7-0.1-1.2-0.4-1.5c-0.3-0.3-0.7-0.4-1.5-0.4h-0.3H9.9v5.4h1v-1.7h1.2h0.2c0.7,0,1.2-0.1,1.5-0.4C14.1,28.3,14.3,27.8,14.3,27.1
	z M17.9,17.9V11H14v3.4l0,0v3.4h-1.5H11l2.5,2.7c1.3,1.5,2.5,2.7,2.5,2.7s1.1-1.2,2.5-2.7l2.5-2.7h-1.5L17.9,17.9z M19.6,27.5
	c0-0.8-0.2-1.4-0.5-1.7c-0.3-0.3-0.8-0.5-1.6-0.5h-2.7v5.4h2.7c0.9,0,1.4-0.2,1.6-0.6S19.6,28.8,19.6,27.5z M23.9,25.3h-3.6v5.4h1
	v-2.2h2.4v-0.9h-2.4v-1.5h2.6V25.3z M26.5,8.6L26,8.3V7.9C26,7,25.8,6,25.4,5.1c-0.3-0.6-0.9-1.5-1.4-2C22.6,1.7,20.8,1,19,1
	c-0.3,0-0.7,0-0.7,0l0,0c0,0-0.3,0.1-0.5,0.1C15.7,1.4,13.6,3,12.7,5c-0.1,0.3-0.2,0.5-0.2,0.5c0,0.1-0.1,0.1-0.4-0.1
	C10,4.1,7.2,4.8,6.1,7C5.7,7.7,5.6,8.5,5.7,9.2C5.8,10,5.8,10,5.5,10.1c-1.3,0.4-2.4,1.3-3,2.5c-0.3,0.6-0.5,1.2-0.5,2
	c-0.1,1.1,0.2,2.1,0.8,3c0.7,1,1.5,1.7,2.7,2.1L6,19.8h5.6l-0.1-0.1c-0.1-0.1-0.6-0.7-1.3-1.4L9,17.1h2.1h2.1v-6.9h5.7V17H21h2.1
	l-1.3,1.4l-1.3,1.4h2.1c1.8,0,2.2,0,2.6-0.1c1.8-0.3,3.4-1.5,4.2-3.2C30.9,13.6,29.6,10,26.5,8.6z"/>
</svg>
