<?xml version="1.0" encoding="utf-8"?>
<!-- Generator: Adobe Illustrator 26.3.1, SVG Export Plug-In . SVG Version: 6.00 Build 0)  -->
<svg version="1.1" id="Слой_1" xmlns="http://www.w3.org/2000/svg" xmlns:xlink="http://www.w3.org/1999/xlink" x="0px" y="0px"
	 viewBox="0 0 32 32" style="enable-background:new 0 0 32 32;" xml:space="preserve">
<path d="M14.4,1.3c0.3,0,0.9,0,1.2,0.3l13.1,13.7c0.6,0.6,0.6,1.5,0,2L15.5,30.4c-0.6,0.6-1.5,0.6-2,0s-0.6-1.5,0-2l12.2-12.2
	L13.5,3.9c-0.6-0.6-0.6-1.5,0-2C13.8,1.6,14.1,1.3,14.4,1.3L14.4,1.3L14.4,1.3z M4.2,1.3c0.3,0,0.9,0,1.2,0.3l13.1,13.7
	c0.6,0.6,0.6,1.5,0,2L5.4,30.4c-0.6,0.6-1.5,0.6-2,0s-0.6-1.5,0-2l12.2-12.2L3.4,3.9c-0.6-0.6-0.6-1.5,0-2C3.7,1.6,4,1.3,4.2,1.3
	L4.2,1.3L4.2,1.3z"/>
</svg>
