<?xml version="1.0" encoding="utf-8"?>
<!-- Generator: Adobe Illustrator 26.3.1, SVG Export Plug-In . SVG Version: 6.00 Build 0)  -->
<svg version="1.1" id="Слой_1" xmlns="http://www.w3.org/2000/svg" xmlns:xlink="http://www.w3.org/1999/xlink" x="0px" y="0px"
	 viewBox="0 0 32 32" style="enable-background:new 0 0 32 32;" xml:space="preserve">
<path d="M15.9,20.1c0.7,0,1.3-0.6,1.3-1.3V10c0-0.7-0.6-1.3-1.3-1.3s-1.3,0.6-1.3,1.3v8.8C14.6,19.5,15.2,20.1,15.9,20.1z
	 M15.9,22.7c1,0,1.8,0.8,1.8,1.8s-0.8,1.8-1.8,1.8s-1.8-0.8-1.8-1.8S14.9,22.7,15.9,22.7z M31.6,26.4L18.8,2.2
	c-0.6-1.2-1.8-1.9-3-1.9l0,0c-1.3,0-2.4,0.7-3,1.9L0.5,26.4c-0.6,1.2-0.6,2.7,0.1,3.9c0.6,1,1.7,1.7,2.9,1.7h25.1
	c1.2,0,2.3-0.6,2.9-1.7C32.2,29.1,32.3,27.6,31.6,26.4L31.6,26.4z M29.4,29c-0.1,0.2-0.4,0.5-0.8,0.5H3.5c-0.4,0-0.7-0.3-0.8-0.5
	c-0.2-0.3-0.3-0.9-0.1-1.4L15,3.4c0.2-0.4,0.5-0.6,0.8-0.6l0,0c0.3,0,0.6,0.2,0.8,0.6l12.8,24.2C29.7,28.1,29.6,28.7,29.4,29
	L29.4,29z"/>
</svg>
