<svg version="1.1" id="layer_plus" xmlns="http://www.w3.org/2000/svg" xmlns:xlink="http://www.w3.org/1999/xlink" x="0px" y="0px"
	 viewBox="0 0 640 640" style="enable-background:new 0 0 640 640;" xml:space="preserve">
<path d="M552,32.3c0-15.4-12.4-27.8-27.8-27.8s-27.8,12.4-27.8,27.8v37.1h-37.1c-15.4,0-27.8,12.4-27.8,27.8s12.4,27.8,27.8,27.8
	h37.1v37.1c0,15.4,12.4,27.8,27.8,27.8s27.8-12.4,27.8-27.8v-37.1h37.1c15.4,0,27.8-12.4,27.8-27.8s-12.4-27.8-27.8-27.8H552V32.3z
	 M347.3,159c-17.3-8-37.2-8-54.5,0L39.1,276.1c-9.9,4.5-16.1,14.4-16.1,25.3c0,10.9,6.3,20.8,16.1,25.3l253.6,117.2
	c17.3,8,37.2,8,54.5,0l253.6-117.2c9.9-4.5,16.1-14.4,16.1-25.3c0-10.9-6.3-20.8-16.1-25.3L347.3,159z M39.1,461.8
	c-9.9,4.5-16.1,14.4-16.1,25.3c0,10.9,6.3,20.8,16.1,25.3l253.6,117.2c17.3,8,37.2,8,54.5,0l253.6-117.2
	c9.9-4.5,16.1-14.4,16.1-25.3c0-10.9-6.3-20.8-16.1-25.3l-79.7-36.9l-150.5,69.5c-32.1,14.9-69.1,14.9-101.3,0l-150.5-69.5
	L39.1,461.8z"/>
</svg>
