<svg version="1.1" id="layer" xmlns="http://www.w3.org/2000/svg" xmlns:xlink="http://www.w3.org/1999/xlink" x="0px" y="0px"
	 viewBox="0 0 640 640" style="enable-background:new 0 0 640 640;" xml:space="preserve">
<path d="M347.3,159c-17.3-8-37.2-8-54.5,0L39.1,276.1c-9.9,4.5-16.1,14.4-16.1,25.3c0,10.9,6.3,20.8,16.1,25.3l253.6,117.2
	c17.3,8,37.2,8,54.5,0l253.6-117.2c9.9-4.5,16.1-14.4,16.1-25.3c0-10.9-6.3-20.8-16.1-25.3L347.3,159z M39.1,461.8
	c-9.9,4.5-16.1,14.4-16.1,25.3c0,10.9,6.3,20.8,16.1,25.3l253.6,117.2c17.3,8,37.2,8,54.5,0l253.6-117.2
	c9.9-4.5,16.1-14.4,16.1-25.3c0-10.9-6.3-20.8-16.1-25.3l-79.7-36.9l-150.5,69.5c-32.1,14.9-69.1,14.9-101.3,0l-150.5-69.5
	L39.1,461.8z"/>
</svg>
