<?xml version="1.0" encoding="utf-8"?>
<!-- Generator: Adobe Illustrator 26.3.1, SVG Export Plug-In . SVG Version: 6.00 Build 0)  -->
<svg version="1.1" id="Capa_1" xmlns="http://www.w3.org/2000/svg" xmlns:xlink="http://www.w3.org/1999/xlink" x="0px" y="0px"
	 viewBox="0 0 550.8 550.8" style="enable-background:new 0 0 550.8 550.8;" xml:space="preserve">
<g>
	<path d="M515.8,61.2H35c-19.3,0-35,15.7-35,35v358.5c0,19.3,15.7,35,35,35h480.9c19.3,0,35-15.7,35-35V96.2
		C550.8,76.9,535.1,61.2,515.8,61.2z M515.8,96.2v254.3l-68.9-62.7c-10.4-9.4-26.3-9-36.2,0.9L341,358.5L203.4,194.2
		c-10.4-12.4-29.4-12.5-40-0.3L35,343.2v-247L515.8,96.2L515.8,96.2z M367.2,188c0-26.6,21.5-48.1,48.1-48.1s48.1,21.5,48.1,48.1
		s-21.5,48.1-48.1,48.1S367.2,214.5,367.2,188z"/>
</g>
</svg>
