<?xml version="1.0" encoding="utf-8"?>
<!-- Generator: Adobe Illustrator 26.3.1, SVG Export Plug-In . SVG Version: 6.00 Build 0)  -->
<svg version="1.1" id="Слой_1" xmlns="http://www.w3.org/2000/svg" xmlns:xlink="http://www.w3.org/1999/xlink" x="0px" y="0px"
	 viewBox="0 0 512 512" style="enable-background:new 0 0 512 512;" xml:space="preserve">
<path d="M452,159h-51V0H111v159H60c-33.1,0-60,26.9-60,60v162c0,33.1,26.9,60,60,60h51v71h290v-71h51c33.1,0,60-26.9,60-60V219
	C512,185.9,485.1,159,452,159z M151,40h210v119H151V40z M151,472V339h210v133H151z M472,381c0,11-9,20-20,20h-51v-62h31v-40H80v40
	h31v62H60c-11,0-20-9-20-20V219c0-11,9-20,20-20h392c11,0,20,9,20,20V381z M321,80v40H191V80H321z"/>
</svg>
