<?xml version="1.0" encoding="utf-8"?>
<!-- Generator: Adobe Illustrator 26.3.1, SVG Export Plug-In . SVG Version: 6.00 Build 0)  -->
<svg version="1.1" id="Слой_1" xmlns="http://www.w3.org/2000/svg" xmlns:xlink="http://www.w3.org/1999/xlink" x="0px" y="0px"
	 viewBox="0 0 32 32" style="enable-background:new 0 0 32 32;" xml:space="preserve">
<g>
	<path d="M24.6,10.1H8.2c-0.5,0-0.8,0.4-0.8,0.8v6.8c0,0.5,0.4,0.8,0.8,0.8h2.1V16H9v-1.7h14.8V16h-1.3v2.6h2.1
		c0.5,0,0.8-0.4,0.8-0.8V11C25.5,10.5,25.1,10.1,24.6,10.1z"/>
	<rect x="12" y="16" width="8.8" height="5.6"/>
	<path d="M20.8,3.4H12v5h8.8V3.4z M19.1,6.8h-5.5V5.1h5.5V6.8z"/>
	<path d="M28.6,0.1H3.4C1.5,0.1,0,1.6,0,3.5v25.1C0,30.5,1.5,32,3.4,32h25.1c1.9,0,3.4-1.5,3.4-3.4V3.5C32,1.6,30.5,0.1,28.6,0.1z
		 M13.9,28.6c-0.2,0.2-0.7,0.4-1.5,0.4h-0.2H11v1.7h-1v-5.4h2.2h0.3c0.7,0,1.2,0.1,1.5,0.4s0.4,0.7,0.4,1.5
		C14.3,27.8,14.1,28.3,13.9,28.6z M19.2,30.1c-0.2,0.4-0.8,0.6-1.6,0.6h-2.7v-5.4h2.7c0.8,0,1.3,0.2,1.6,0.5
		c0.3,0.3,0.5,0.9,0.5,1.7C19.6,28.8,19.5,29.7,19.2,30.1z M23.9,26.1h-2.6v1.5h2.4v0.9h-2.4v2.2h-1v-5.4h3.6
		C23.9,25.3,23.9,26.1,23.9,26.1z M27.2,17.8c0,1.4-1.1,2.5-2.5,2.5h-2.1v3H10.3v-3H8.2c-1.4,0-2.5-1.1-2.5-2.5V11
		c0-1.4,1.1-2.5,2.5-2.5h2.1V1.8h12.2v6.7h2.1c1.4,0,2.5,1.1,2.5,2.5L27.2,17.8L27.2,17.8z"/>
	<path d="M12.3,26.1H11V28h1.2c0.5,0,0.8,0,0.9-0.2c0.1-0.1,0.2-0.4,0.2-0.8c0-0.5,0-0.7-0.2-0.8C13,26.2,12.7,26.1,12.3,26.1z"/>
	<path d="M17.5,26.1H16v3.7h1.5c0.5,0,0.8-0.1,1-0.3c0.1-0.2,0.2-0.7,0.2-1.5s-0.1-1.3-0.2-1.5C18.3,26.2,17.9,26.1,17.5,26.1z"/>
</g>
</svg>
