<?xml version="1.0" encoding="utf-8"?>
<!-- Generator: Adobe Illustrator 26.3.1, SVG Export Plug-In . SVG Version: 6.00 Build 0)  -->
<svg version="1.1" id="Capa_1" xmlns="http://www.w3.org/2000/svg" xmlns:xlink="http://www.w3.org/1999/xlink" x="0px" y="0px"
	 viewBox="0 0 373 373" style="enable-background:new 0 0 373 373;" xml:space="preserve">
<g>
	<path d="M174,236.5H90.7c-28,0-50.7-22.7-50.7-50.5c0-22.6,14.7-41.9,35-48.4v10c0,6.1,3.8,10.4,9.2,10.4c2.1,0,4.2-0.6,6.2-1.9
		l47-29.2c3.5-2.2,5.5-5.5,5.5-9s-2-6.8-5.5-9l-47-29.2c-2.1-1.3-4.1-1.9-6.2-1.9c-5.4,0-9.2,4.3-9.2,10.4v8.4
		C32.5,103.8,0,141.1,0,186c0,49.9,40.7,90.5,90.7,90.5H174c11,0,20-9,20-20S185,236.5,174,236.5z"/>
	<path d="M373,186.5c0-50.2-40.7-91-90.7-91H199c-11,0-20,9-20,20s9,20,20,20h83.3c27.9,0,50.7,22.9,50.7,51
		c0,22.5-14.7,41.7-35,48.2v-9.2c0-6.1-3.8-10.4-9.2-10.4c-2.1,0-4.2,0.6-6.2,1.9l-47,29.2c-3.5,2.2-5.5,5.5-5.5,9
		c0,3.5,2,6.8,5.5,9l47,29.2c2.1,1.3,4.1,1.9,6.2,1.9c5.4,0,9.2-4.3,9.2-10.4v-9.2c18.4-3.1,35.3-11.8,48.7-25.3
		C363.6,233.5,373,210.7,373,186.5z"/>
</g>
</svg>
