<?xml version="1.0" encoding="utf-8"?>
<!-- Generator: Adobe Illustrator 26.3.1, SVG Export Plug-In . SVG Version: 6.00 Build 0)  -->
<svg version="1.1" id="Capa_1" xmlns="http://www.w3.org/2000/svg" xmlns:xlink="http://www.w3.org/1999/xlink" x="0px" y="0px"
	 viewBox="0 0 17.6 17.6" style="enable-background:new 0 0 17.6 17.6;" xml:space="preserve">
<style type="text/css">
	.st0{fill:#030104;}
</style>
<g>
	<path class="st0" d="M16.5,1H1.1C0.5,1,0,1.5,0,2.1v15.4c0,0.6,0.5,1.1,1.1,1.1h15.4c0.6,0,1.1-0.5,1.1-1.1V2.1
		C17.6,1.5,17.1,1,16.5,1z M5.2,15.5c-1,0-1.8-0.8-1.8-1.8s0.8-1.8,1.8-1.8S7,12.7,7,13.7S6.2,15.5,5.2,15.5z M11.3,14.3
		c0,0.3-0.1,0.6-0.3,0.8s-0.5,0.3-0.8,0.3c-0.6,0-1.1-0.5-1.1-1.1v-0.6C9,11.6,7.4,10,5.4,10H4.5c-0.6,0-1.1-0.5-1.1-1.1
		c0-0.6,0.5-1.1,1.1-1.1H5h0.4c3.2,0,5.8,2.5,5.9,5.6c0,0,0,0,0,0.1v0.1v0.1V14.3z M15.1,13.7L15.1,13.7v0.5c0,0.6-0.5,1-1,1
		s-1-0.5-1-1v-0.8C12.9,9.3,9.5,6,5.4,5.9l0,0h-1c-0.6,0-1-0.5-1-1c0-0.6,0.5-1,1-1h1c0,0,0,0,0.1,0c5.1,0.1,9.3,4.1,9.6,9.2
		c0,0.1,0,0.1,0,0.2V13.7z"/>
</g>
</svg>
