<?xml version="1.0" encoding="utf-8"?>
<!-- Generator: Adobe Illustrator 26.3.1, SVG Export Plug-In . SVG Version: 6.00 Build 0)  -->
<svg version="1.1" id="Capa_1" xmlns="http://www.w3.org/2000/svg" xmlns:xlink="http://www.w3.org/1999/xlink" x="0px" y="0px"
	 viewBox="0 0 585.9 585.9" style="enable-background:new 0 0 585.9 585.9;" xml:space="preserve">
<g>
	<path d="M77.3,251.5c-6,0.1-9.4,0.7-11.1,1.1v32.8h9.7c12.4,0,19.9-6.8,19.9-17.4C95.7,256.9,88.7,251.5,77.3,251.5z"/>
	<path d="M537.1,49H359.7c-0.8,0-1.6,0.1-2.3,0.1V0L11.2,46.2v492.3l346.2,47.4v-50.6c0.8,0.1,1.5,0.1,2.3,0.1h177.4
		c20.7,0,37.6-16.9,37.6-37.6V86.6C574.7,65.9,557.9,49,537.1,49z M100,352.6c-1.8-3.5-4.5-13.5-7.8-28.5
		c-3-15.1-7.7-19.3-17.8-19.6l-7.4-0.1v46.7L43.1,350V234.6c7.7-1.6,19.2-3,32.2-3.4c16.4-0.5,28,1.8,36.1,8.5
		c6.8,5.7,10.6,14.2,10.6,25.4c0,15.7-10.4,26.4-20.2,30.1v0.5c7.9,3.5,12.3,11.7,15.2,23.1c3.6,13.9,7.2,30.1,9.4,35L100,352.6z
		 M170.6,357.7c-13.9-0.6-27.4-5-34.1-9.1l5.4-23c7.2,4.1,18.5,8.3,30.3,8.7c12.9,0.4,19.7-4.9,19.7-13.2c0-8-5.9-12.7-20.8-18.4
		c-20.2-7.5-33-19-33-37.1c0-21.2,17-37.9,45.9-38.8c14.2-0.4,24.7,2.3,32.4,5.6l-6.5,23.8c-5.1-2.4-14.2-5.9-26.5-5.7
		c-12.1,0.2-17.9,5.9-17.9,12.5c0,8.1,6.9,11.6,22.9,17.8c22.4,8.5,33.2,20.6,33.2,38.9C221.5,341.4,204.9,359.2,170.6,357.7z
		 M274.9,362.5c-15.7-0.7-30.9-5.3-38.4-9.8l6.1-24.4c8.1,4.4,20.8,8.9,34.1,9.3c14.5,0.5,22.3-5.1,22.3-14
		c0-8.5-6.7-13.5-23.5-19.5c-22.7-8-37.2-20.2-37.2-39.4c0-22.5,19.1-40.3,51.7-41.3c16-0.5,28,2.4,36.6,5.8l-7.4,25.4
		c-5.8-2.6-16-6.3-29.9-6c-13.7,0.2-20.2,6.3-20.2,13.3c0,8.6,7.8,12.3,25.9,18.9c20.5,7.3,32.4,17.1,36.2,30.9v4.6
		c0.3,0.1,0.7,0.3,1,0.5c0.2,1.7,0.4,3.5,0.4,5.4C332.5,345.4,313.7,364.3,274.9,362.5z M553.2,497.8c0,8.9-7.2,16.1-16.1,16.1
		H359.7c-0.8,0-1.6-0.1-2.3-0.2V388.9c0.4-2.1,0.6-4.3,0.6-6.6c0-2.3-0.2-4.5-0.6-6.6v-43.5c23.8,19.6,39,49.3,39,82.4
		c0,2,1.7,3.7,3.8,3.7h46c2.1,0,3.8-1.7,3.8-3.7l-0.2-1.2c-0.5-63.6-38.2-118.4-92.3-143.8v-27.1c68.5,27.1,117.2,94,117.2,172.1
		c0,2,1.7,3.7,3.8,3.7h47.4c2.1,0,3.8-1.7,3.8-3.7l-0.2-1.2c-0.5-108.1-73-199.4-171.9-228.7v-114c0.8-0.1,1.5-0.2,2.3-0.2h177.4
		c8.9,0,16.1,7.2,16.1,16.1v411.2H553.2z"/>
</g>
</svg>
