<?xml version="1.0" encoding="utf-8"?>
<!-- Generator: Adobe Illustrator 26.3.1, SVG Export Plug-In . SVG Version: 6.00 Build 0)  -->
<svg version="1.1" id="Слой_1" xmlns="http://www.w3.org/2000/svg" xmlns:xlink="http://www.w3.org/1999/xlink" x="0px" y="0px"
	 viewBox="0 0 132 132" style="enable-background:new 0 0 132 132;" xml:space="preserve">
<style type="text/css">
	.st0{fill:#100000;}
</style>
<path class="st0" d="M81.5,63h-39V47.6h39c2.3,0,3.9,0.4,4.7,1.1c0.8,0.7,1.3,2,1.3,3.9V58c0,2-0.5,3.3-1.3,4
	C85.4,62.7,83.8,63,81.5,63L81.5,63z M84.2,33H26v66h16.5V77.5H73L87.5,99H106L90.1,77.4c5.9-0.9,8.5-2.7,10.7-5.6
	c2.2-3,3.3-7.7,3.3-14.1v-4.9c0-3.8-0.4-6.7-1.1-9c-0.7-2.3-1.9-4.3-3.6-6c-1.8-1.7-3.8-2.9-6.1-3.7C90.8,33.4,87.9,33,84.2,33
	L84.2,33z M132,0c0,0,0,0,0,66c-7.4,0-14.5-1.2-21.2-3.5c0.1-1.6,0.2-3.2,0.2-4.8v-4.9c0-4.2-0.4-7.9-1.4-11c-1-3.4-2.8-6.3-5.2-8.8
	l-0.1-0.1l-0.1-0.1c-2.5-2.4-5.4-4.1-8.7-5.2l-0.1,0l-0.1,0c-3.2-0.9-6.8-1.4-11-1.4h-7v0h-5.9C67.9,18,66,9.2,66,0
	C132,0,132,0,132,0z M66,132c-36.4,0-66-29.6-66-66S29.6,0,66,0s66,29.6,66,66S102.4,132,66,132z M66,2C30.7,2,2,30.7,2,66
	c0,35.3,28.7,64,64,64c35.3,0,64-28.7,64-64C130,30.7,101.3,2,66,2z"/>
</svg>
