<?xml version="1.0" encoding="utf-8"?>
<!-- Generator: Adobe Illustrator 26.3.1, SVG Export Plug-In . SVG Version: 6.00 Build 0)  -->
<svg version="1.1" id="Capa_1" xmlns="http://www.w3.org/2000/svg" xmlns:xlink="http://www.w3.org/1999/xlink" x="0px" y="0px"
	 viewBox="0 0 425 425" style="enable-background:new 0 0 425 425;" xml:space="preserve">
<g>
	<g>
		<path d="M340.5,300.6c-16.2,0-30.8,6.3-41.9,16.4l-152-88.6c1.2-4.8,1.9-9.8,1.9-14.9s-0.7-10.1-1.9-14.9L297,110.7
			c11.4,10.7,26.7,17.3,43.5,17.3c35.3,0,64-28.7,64-64s-28.7-64-64-64s-64,28.7-64,64c0,5.1,0.7,10.1,1.9,14.9L128,166.7
			c-11.4-10.7-26.7-17.3-43.5-17.3c-35.3,0-64,28.7-64,64s28.7,64,64,64c16.9,0,32.1-6.6,43.5-17.3l152,88.6
			c-1.1,4.5-1.7,9.2-1.7,14c0,34.3,27.8,62.2,62.2,62.2s62.2-27.8,62.2-62.2S374.8,300.6,340.5,300.6z"/>
	</g>
</g>
</svg>
