<?xml version="1.0" encoding="utf-8"?>
<!-- Generator: Adobe Illustrator 26.3.1, SVG Export Plug-In . SVG Version: 6.00 Build 0)  -->
<svg version="1.1" id="Слой_1" xmlns="http://www.w3.org/2000/svg" xmlns:xlink="http://www.w3.org/1999/xlink" x="0px" y="0px"
	 viewBox="0 0 975 975" style="enable-background:new 0 0 975 975;" xml:space="preserve">
<g transform="translate(0.000000,1000.000000) scale(0.100000,-0.100000)">
	<path d="M8015,9935c-80-30-206-77-280-104c-485-178-1216-446-1275-467c-38-14-86-32-105-39c-19-8-134-50-255-94
		c-533-194-798-292-826-306c-16-9-31-25-34-38c-3-12-4-186-3-387l3-365l22-3c12-2,123,33,245,78c123,45,358,132,523,192
		c466,171,721,264,895,327c63,23,126,46,139,52c13,5,152,57,310,114c602,219,819,301,842,316l24,16l3,362c2,243-1,368-8,381
		C8218,10001,8175,9994,8015,9935z"/>
	<path d="M4540,8781c-11-5-23-7-27-5c-12,7-223-27-343-57c-225-54-496-152-650-235c-22-11-76-40-120-64c-312-167-670-469-906-765
		c-138-173-295-417-283-437c4-6,3-8-2-5c-13,8-126-221-118-236c4-7,3-9-1-4c-20,18-165-405-191-558c-2-11-11-53-19-94
		c-33-161-47-326-48-546c0-274,21-458,79-705c26-109,120-407,134-425c5-6,18-37,30-69c44-116,165-336,282-510
		c110-162,203-272,396-465c112-112,146-141,153-130c8,11,9,11,7-2c-3-19,58-71,217-184c353-251,779-427,1215-504
		c493-86,986-51,1462,105c264,86,572,236,756,368c101,73,262,195,298,227c52,46,219,213,274,274c86,94,251,314,295,390
		c16,28,39,64,51,80c30,42,144,265,184,360c18,44,39,94,45,110c49,117,154,500,141,513c-3,2-1,12,4,22c25,47,61,548,41,579
		c-7,11-33,7-147-24c-77-20-161-43-189-51c-241-63-343-92-362-103c-33-17-49-57-57-136c-15-168-79-417-152-595
		c-27-64-124-260-144-290c-9-14-42-64-73-111c-113-174-301-380-465-511c-76-60-247-178-259-178c-4,0-14-6-22-14
		c-16-15-184-101-256-131c-378-161-832-220-1235-160c-383,57-722,200-1055,442c-87,63-371,341-401,392c-11,18-24,29-32,26
		c-7-3-10,0-7,6c4,5-11,33-32,62c-123,164-261,438-318,627c-9,30-21,66-26,79c-16,40-57,251-74,376c-44,342,12,762,147,1095
		c83,207,197,402,338,584c75,96,277,294,390,382c319,250,724,414,1142,465c54,6,105,17,115,24c17,12,18,41,21,350
		c3,400,10,375-107,374C4594,8789,4551,8785,4540,8781z"/>
	<path d="M8145,8583c-8-3-62-22-120-43c-376-138-1216-446-1270-466c-36-13-94-34-130-47c-36-14-220-81-410-150s-437-160-550-202
		c-113-41-249-92-302-111c-53-20-104-44-112-53c-14-16-16-63-14-391c3-324,5-374,18-383c16-9,170,44,795,275c105,38,255,94,335,123
		s264,97,410,150s348,128,450,165c102,38,345,127,540,198c452,166,435,158,449,188c15,33,16,707,1,735
		C8224,8590,8181,8596,8145,8583z"/>
	<path d="M8140,7256c-42-14-357-129-660-241c-99-37-191-71-205-75c-14-5-61-22-105-38c-44-17-197-73-340-125s-388-142-545-200
		s-427-157-601-220c-410-150-422-155-436-174c-10-13-13-107-13-390c0-352,1-373,18-382c14-8,42-1,113,25c52,19,148,55,214,79
		s275,101,465,170c190,70,392,144,450,165s193,71,300,110c167,62,413,152,805,295c607,221,617,225,632,255c10,19,13,114,13,377
		C8245,7303,8248,7291,8140,7256z"/>
	<path d="M2547,1979c-186-17-368-82-493-176c-161-121-256-260-310-453c-20-73-23-107-23-240c1-188,18-264,95-418
		c81-162,198-277,366-361c148-74,323-107,512-98c195,10,330,43,499,122l92,44v195c0,108-2,196-4,196s-35-19-72-42
		c-181-109-347-159-534-159c-172,0-278,39-381,141c-61,60-110,151-128,238c-14,66-14,202-1,273c25,134,130,272,251,329
		c165,78,381,79,607,4c48-16,202-90,217-105c5-5,15-9,22-9c10,0,13,41,13,194v194l-72,30C2990,1966,2767,2000,2547,1979z"/>
	<path d="M3505,1110V260h210h210l2,397l3,396l325-396l325-397h216h216l17,45c10,25,21,45,24,44c4,0,23-20,42-44l35-44h166l167-1
		l68,165l68,165h367h366l58-157c32-87,61-161,65-166c3-4,106-6,227-5l220,3l-74,190c-41,105-139,357-218,560
		c-265,681-351,900-364,923l-12,22l-241-2l-241-3l-58-130c-97-219-445-1018-541-1240c-50-116-94-213-98-218c-3-4-81,84-172,195
		c-92,112-217,264-278,338c-156,188-220,268-220,274c0,3,60,83,133,177c72,95,173,225,222,290c50,65,123,160,163,212
		c39,52,72,97,72,101c0,3-105,6-234,6h-234l-78-102c-106-141-214-282-368-483l-131-170l-3,378l-2,377h-210h-210V1110z M6036,1393
		c23-65,75-206,115-313l72-195l-245-3c-136-1-248-1-250,2c-4,3,40,114,121,306c13,30,47,115,77,188c29,72,56,132,60,132
		S6012,1457,6036,1393z"/>
	<path d="M6635,1800v-160h280h280V950V260h225h225v690v690h280h280v160v160h-785h-785V1800z"/>
</g>
</svg>
