<?xml version="1.0" encoding="utf-8"?>
<!-- Generator: Adobe Illustrator 26.3.1, SVG Export Plug-In . SVG Version: 6.00 Build 0)  -->
<svg version="1.1" id="Layer_1" xmlns="http://www.w3.org/2000/svg" xmlns:xlink="http://www.w3.org/1999/xlink" x="0px" y="0px"
	 viewBox="0 0 512 512" style="enable-background:new 0 0 512 512;" xml:space="preserve">
<path d="M256,0C114.8,0,0,114.8,0,256s114.8,256,256,256s256-114.8,256-256S397.2,0,256,0z M247.6,384.1c-33.3,0.6-65.5,4.7-95.2,12
	c-7.9-20.4-14.1-42.9-18.2-66.8h113.4V384.1z M247.6,400.1v95.4c-24.7-3.1-48.1-19.5-68.3-47.9c-7.6-10.7-14.5-23-20.6-36.5
	C186.4,404.4,216.5,400.7,247.6,400.1z M263.6,495.6v-95.5c31.4,0.5,61.8,4.3,89.8,11c-6.1,13.5-13,25.7-20.6,36.5
	C312.3,476.3,288.5,492.8,263.6,495.6L263.6,495.6z M263.6,384.1v-54.7h114.3c-4.1,23.9-10.3,46.4-18.2,66.8
	C329.7,388.7,297.1,384.6,263.6,384.1z M22.9,313.3C18.4,295,16,275.8,16,256s2.4-39,6.9-57.3h364.3c0,0,0,0,0,0c0,0,0,0,0,0h101.8
	c4.5,18.4,6.9,37.6,6.9,57.3s-2.4,39-6.9,57.3H22.9z M263.6,127.9c33.6-0.5,66.1-4.7,96.1-12.1c7.9,20.4,14.1,42.9,18.2,66.8H263.6
	L263.6,127.9z M263.6,111.9V16.4c25,2.8,48.7,19.2,69.1,48.1c7.6,10.7,14.5,23,20.6,36.5C325.3,107.7,295,111.4,263.6,111.9z
	 M247.6,16.5v95.4c-31.1-0.6-61.1-4.3-88.9-11c6.1-13.5,13-25.7,20.6-36.5C199.5,36,222.9,19.6,247.6,16.5z M247.6,127.9v54.7H134.2
	c4.1-23.9,10.3-46.4,18.2-66.8C182.1,123.2,214.3,127.3,247.6,127.9z M394.1,182.7c-4.2-25.2-10.6-49.2-18.9-71
	c19.5-5.7,37.8-12.9,54.3-21.4c24.8,25.9,43.9,57.4,55.1,92.4H394.1z M417.3,78.4c-14.8,7.2-31,13.4-48.3,18.4
	c-6.8-15.4-14.6-29.4-23.2-41.6c-8.8-12.5-18.3-22.9-28.3-31.2C355.2,34,389.3,52.9,417.3,78.4z M166.2,55.2
	c-8.6,12.2-16.4,26.2-23.2,41.6c-17.3-5-33.5-11.1-48.3-18.4c28-25.5,62.1-44.4,99.8-54.4C184.5,32.3,175.1,42.8,166.2,55.2z
	 M82.6,90.3c16.5,8.5,34.8,15.7,54.3,21.4c-8.3,21.7-14.7,45.7-18.9,71H27.5C38.7,147.7,57.8,116.2,82.6,90.3z M27.5,329.3h90.5
	c4.2,25.2,10.6,49.2,18.9,71c-19.5,5.7-37.7,12.9-54.3,21.4C57.8,395.8,38.7,364.3,27.5,329.3z M94.7,433.6
	c14.8-7.2,31-13.4,48.3-18.4c6.8,15.4,14.6,29.4,23.2,41.6c8.8,12.5,18.3,22.9,28.3,31.2C156.8,478,122.7,459.1,94.7,433.6z
	 M345.8,456.8c8.6-12.2,16.4-26.2,23.2-41.6c17.3,5,33.5,11.1,48.3,18.4c-28,25.5-62.1,44.4-99.8,54.4
	C327.5,479.7,336.9,469.2,345.8,456.8z M429.4,421.7c-16.5-8.5-34.8-15.7-54.3-21.4c8.3-21.7,14.7-45.7,18.9-71h90.5
	C473.3,364.3,454.2,395.8,429.4,421.7L429.4,421.7z M454.4,227.3l-22.6,62.8c-1.1,3.2-4.2,5.3-7.5,5.3s-6.4-2.1-7.5-5.3l-15-41.9
	l-15,41.9c-1.1,3.2-4.2,5.3-7.5,5.3s-6.4-2.1-7.5-5.3l-22.6-62.8c-1.5-4.2,0.7-8.7,4.8-10.2c4.2-1.5,8.7,0.7,10.2,4.8l15,41.9
	l15-41.9c1.1-3.2,4.2-5.3,7.5-5.3s6.4,2.1,7.5,5.3l15,41.9l15-41.9c1.5-4.2,6.1-6.3,10.2-4.8C453.7,218.6,455.9,223.1,454.4,227.3
	L454.4,227.3z M308.7,227.3l-22.6,62.8c-1.1,3.2-4.2,5.3-7.5,5.3s-6.4-2.1-7.5-5.3l-15-41.9l-15,41.9c-1.1,3.2-4.2,5.3-7.5,5.3
	s-6.4-2.1-7.5-5.3l-22.6-62.8c-1.5-4.2,0.7-8.7,4.8-10.2c4.2-1.5,8.7,0.7,10.2,4.8l15,41.9l15-41.9c1.1-3.2,4.2-5.3,7.5-5.3
	c3.4,0,6.4,2.1,7.5,5.3l15,41.9l15-41.9c1.5-4.2,6.1-6.3,10.2-4.8C308,218.6,310.2,223.1,308.7,227.3L308.7,227.3z M162.9,227.3
	l-22.6,62.8c-1.1,3.2-4.2,5.3-7.5,5.3s-6.4-2.1-7.5-5.3l-15-41.9l-15,41.9c-1.1,3.2-4.2,5.3-7.5,5.3s-6.4-2.1-7.5-5.3l-22.6-62.8
	c-1.5-4.2,0.7-8.7,4.8-10.2c4.2-1.5,8.7,0.7,10.2,4.8l15,41.9l15-41.9c1.1-3.2,4.2-5.3,7.5-5.3s6.4,2.1,7.5,5.3l15,41.9l15-41.9
	c1.5-4.2,6.1-6.3,10.2-4.8C162.3,218.6,164.4,223.1,162.9,227.3L162.9,227.3z"/>
</svg>
