<?xml version="1.0" encoding="utf-8"?>
<!-- Generator: Adobe Illustrator 26.3.1, SVG Export Plug-In . SVG Version: 6.00 Build 0)  -->
<svg version="1.1" id="Layer_1" xmlns="http://www.w3.org/2000/svg" xmlns:xlink="http://www.w3.org/1999/xlink" x="0px" y="0px"
	 viewBox="0 0 179.8 181" style="enable-background:new 0 0 179.8 181;" xml:space="preserve">
<style type="text/css">
	.st0{fill-rule:evenodd;clip-rule:evenodd;fill:#231F20;}
</style>
<path class="st0" d="M91.3,0.8C42.9,0.8,3.7,40,3.7,88.3c0,16.5,4.6,32,12.6,45.2l-15.8,47L49,165c12.5,6.9,27,10.9,42.3,10.9
	c48.4,0,87.6-39.2,87.6-87.6C178.8,40,139.6,0.8,91.3,0.8z M91.3,161.2c-14.8,0-28.6-4.4-40.1-12.1l-28,9l9.1-27.1
	c-8.7-12-13.9-26.8-13.9-42.7c0-40.2,32.7-72.9,72.9-72.9c40.2,0,72.9,32.7,72.9,72.9C164.2,128.5,131.5,161.2,91.3,161.2z"/>
<path class="st0" d="M132.3,108.2c-2.2-1.2-13-7-15-7.8c-2-0.8-3.5-1.2-5.1,0.9c-1.6,2.2-6,7-7.4,8.5c-1.4,1.4-2.7,1.6-4.9,0.4
	c-2.2-1.2-9.3-3.8-17.6-11.8C76,92.2,71.8,84.8,70.6,82.5c-1.2-2.3,0-3.5,1.2-4.5c1-1,2.3-2.5,3.5-3.8c1.2-1.3,1.6-2.2,2.4-3.6
	c0.8-1.5,0.5-2.8,0-3.9c-0.5-1.1-4.6-12.3-6.3-16.8c-1.7-4.5-3.6-3.9-4.9-3.9c-1.3,0-2.8-0.3-4.3-0.3c-1.5-0.1-3.9,0.4-6.1,2.6
	c-2.1,2.2-8.1,7.3-8.5,18.3c-0.4,11,7.2,21.9,8.3,23.5c1.1,1.5,14.5,25.4,36.9,35.2c22.4,9.8,22.5,6.8,26.6,6.6
	c4.1-0.2,13.4-4.9,15.5-10.1c2.1-5.1,2.2-9.6,1.7-10.6C136,110,134.5,109.4,132.3,108.2z"/>
</svg>
