<?xml version="1.0" encoding="utf-8"?>
<!-- Generator: Adobe Illustrator 26.3.1, SVG Export Plug-In . SVG Version: 6.00 Build 0)  -->
<svg version="1.1" id="Слой_1" xmlns="http://www.w3.org/2000/svg" xmlns:xlink="http://www.w3.org/1999/xlink" x="0px" y="0px"
	 viewBox="0 0 32 32" style="enable-background:new 0 0 32 32;" xml:space="preserve">
<path d="M31.2,29.3l-6-6c0.9-1,1.6-2.2,2.1-3.5c0.7-1.7,1.1-3.6,1.1-5.4S28,10.7,27.3,9s-1.7-3.2-3-4.4s-2.8-2.3-4.4-3
	c-1.7-0.7-3.6-1.1-5.4-1.1s-3.8,0.3-5.5,1s-3.2,1.7-4.4,3S2.3,7.3,1.5,9c-0.7,1.7-1.1,3.6-1.1,5.4s0.4,3.7,1.1,5.4
	c0.7,1.7,1.7,3.2,3,4.4s2.8,2.3,4.4,3c1.7,0.7,3.6,1.1,5.4,1.1s3.7-0.4,5.4-1.1c1.3-0.5,2.4-1.2,3.5-2.1l6,6
	c0.3,0.3,0.6,0.4,0.9,0.4s0.7-0.1,0.9-0.4C31.7,30.6,31.7,29.8,31.2,29.3L31.2,29.3z M14.4,25.7c-6.2,0-11.3-5.1-11.3-11.3
	S8.2,3.1,14.4,3.1s11.3,5.1,11.3,11.3c0,3.1-1.2,5.8-3.2,7.9l-0.1,0.1l-0.1,0.1C20.3,24.5,17.5,25.7,14.4,25.7L14.4,25.7z
	 M19.2,13.1H9.7c-0.7,0-1.3,0.6-1.3,1.3s0.6,1.3,1.3,1.3h9.5c0.7,0,1.3-0.6,1.3-1.3S19.9,13.1,19.2,13.1z"/>
</svg>
