<?xml version="1.0" encoding="utf-8"?>
<!-- Generator: Adobe Illustrator 26.3.1, SVG Export Plug-In . SVG Version: 6.00 Build 0)  -->
<svg version="1.1" id="Слой_1" xmlns="http://www.w3.org/2000/svg" xmlns:xlink="http://www.w3.org/1999/xlink" x="0px" y="0px"
	 viewBox="0 0 32 32" style="enable-background:new 0 0 32 32;" xml:space="preserve">
<path d="M30.5,31.8c-0.3,0-0.7-0.1-0.9-0.4l-6.1-6.1c-1.1,0.9-2.2,1.6-3.5,2.1c-1.8,0.7-3.6,1.1-5.5,1.1s-3.8-0.4-5.5-1.1
	s-3.2-1.7-4.5-3s-2.3-2.8-3-4.5c-0.7-1.8-1.1-3.6-1.1-5.5s0.4-3.8,1.1-5.5s1.7-3.2,3-4.5s2.8-2.3,4.5-3c1.8-0.7,3.6-1.1,5.5-1.1
	s3.8,0.4,5.5,1.1s3.2,1.7,4.5,3s2.3,2.8,3,4.5c0.7,1.8,1.1,3.6,1.1,5.5s-0.4,3.8-1.1,5.5c-0.5,1.3-1.3,2.5-2.1,3.5l6.1,6.1
	c0.5,0.5,0.5,1.4,0,1.9C31.2,31.7,30.8,31.8,30.5,31.8z M14.4,2.9C8,2.9,2.9,8,2.9,14.4S8,25.9,14.4,25.9c3.1,0,5.9-1.2,8-3.3
	l0.1-0.1l0.1-0.1c2-2.1,3.3-4.9,3.3-8C25.9,8,20.8,2.9,14.4,2.9z M14.4,20.5c-0.7,0-1.3-0.6-1.3-1.3v-3.5H9.6
	c-0.7,0-1.3-0.6-1.3-1.3s0.6-1.3,1.3-1.3h3.5V9.6c0-0.7,0.6-1.3,1.3-1.3s1.3,0.6,1.3,1.3v3.5h3.5c0.7,0,1.3,0.6,1.3,1.3
	s-0.6,1.3-1.3,1.3h-3.5v3.5C15.7,20,15.1,20.5,14.4,20.5L14.4,20.5z"/>
</svg>
